<?xml version="1.0" encoding="UTF-8" standalone="no"?>
<!-- Created with Inkscape (http://www.inkscape.org/) -->

<svg
   xmlns:dc="http://purl.org/dc/elements/1.1/"
   xmlns:cc="http://creativecommons.org/ns#"
   xmlns:rdf="http://www.w3.org/1999/02/22-rdf-syntax-ns#"
   xmlns:svg="http://www.w3.org/2000/svg"
   xmlns="http://www.w3.org/2000/svg"
   xmlns:sodipodi="http://sodipodi.sourceforge.net/DTD/sodipodi-0.dtd"
   xmlns:inkscape="http://www.inkscape.org/namespaces/inkscape"
   width="250"
   height="250"
   viewBox="0 0 66.14583 66.145836"
   version="1.1"
   id="svg8"
   inkscape:version="0.92.3 (2405546, 2018-03-11)"
   sodipodi:docname="river.svg"
   inkscape:export-filename="/home/mathter/dev/git/sptronn/design/forprocessing/tank/0/body.png"
   inkscape:export-xdpi="96"
   inkscape:export-ydpi="96">
  <defs
     id="defs2">
    <inkscape:perspective
       sodipodi:type="inkscape:persp3d"
       inkscape:vp_x="-2.2951398 : 50.511699 : 1"
       inkscape:vp_y="0 : 992.96655 : 0"
       inkscape:vp_z="98.972213 : 66.275043 : 1"
       inkscape:persp3d-origin="42.712573 : 44.381509 : 1"
       id="perspective829" />
    <mask
       maskUnits="userSpaceOnUse"
       id="mask923">
      <rect
         style="fill:#fff400;fill-opacity:1;stroke:#000000;stroke-width:0.26458332;stroke-linecap:square;stroke-linejoin:miter;stroke-miterlimit:4;stroke-dasharray:none;stroke-dashoffset:0;stroke-opacity:1;paint-order:normal"
         id="rect925"
         width="28.839586"
         height="105.56876"
         x="0.13229166"
         y="212.46561"
         mask="none" />
    </mask>
    <mask
       maskUnits="userSpaceOnUse"
       id="mask927">
      <rect
         style="fill:#fff400;fill-opacity:1;stroke:#000000;stroke-width:0.26458332;stroke-linecap:square;stroke-linejoin:miter;stroke-miterlimit:4;stroke-dasharray:none;stroke-dashoffset:0;stroke-opacity:1;paint-order:normal"
         id="rect929"
         width="28.839586"
         height="105.56876"
         x="0.13229166"
         y="191.29893"
         mask="none" />
    </mask>
  </defs>
  <sodipodi:namedview
     id="base"
     pagecolor="#ffffff"
     bordercolor="#666666"
     borderopacity="1.0"
     inkscape:pageopacity="0.0"
     inkscape:pageshadow="2"
     inkscape:zoom="1.678"
     inkscape:cx="172.92689"
     inkscape:cy="136.95733"
     inkscape:document-units="px"
     inkscape:current-layer="svg8"
     showgrid="false"
     units="px"
     inkscape:window-width="1920"
     inkscape:window-height="1051"
     inkscape:window-x="0"
     inkscape:window-y="0"
     inkscape:window-maximized="1"
     inkscape:lockguides="false"
     showguides="true"
     inkscape:guide-bbox="true"
     inkscape:snap-nodes="false"
     inkscape:snap-others="false">
    <inkscape:grid
       type="xygrid"
       id="grid870" />
    <sodipodi:guide
       position="66.145832,142.37448"
       orientation="1,0"
       id="guide69"
       inkscape:locked="false"
       inkscape:label=""
       inkscape:color="rgb(0,0,255)" />
    <sodipodi:guide
       position="66.145832,66.145832"
       orientation="0,1"
       id="guide71"
       inkscape:locked="false"
       inkscape:label=""
       inkscape:color="rgb(0,0,255)" />
    <sodipodi:guide
       position="-19.831398,0"
       orientation="0,1"
       id="guide111"
       inkscape:locked="false"
       inkscape:label=""
       inkscape:color="rgb(0,0,255)" />
    <sodipodi:guide
       position="33.072916,80.168752"
       orientation="1,0"
       id="guide958"
       inkscape:locked="false"
       inkscape:label=""
       inkscape:color="rgb(0,0,255)" />
    <sodipodi:guide
       position="-24.341665,33.072916"
       orientation="0,1"
       id="guide960"
       inkscape:locked="false"
       inkscape:label=""
       inkscape:color="rgb(0,0,255)" />
    <sodipodi:guide
       position="7.9374999,114.82917"
       orientation="1,0"
       id="guide845"
       inkscape:locked="false"
       inkscape:label=""
       inkscape:color="rgb(0,0,255)" />
    <sodipodi:guide
       position="239.44791,116.15209"
       orientation="1,0"
       id="guide847"
       inkscape:locked="false"
       inkscape:label=""
       inkscape:color="rgb(0,0,255)" />
    <sodipodi:guide
       position="25.135416,-7.9375002"
       orientation="1,0"
       id="guide851"
       inkscape:locked="false"
       inkscape:label=""
       inkscape:color="rgb(0,0,255)" />
    <sodipodi:guide
       position="7.9374999,0"
       orientation="0,1"
       id="guide853"
       inkscape:locked="false"
       inkscape:label=""
       inkscape:color="rgb(0,0,255)" />
    <sodipodi:guide
       position="48.154164,25.135416"
       orientation="0,1"
       id="guide855"
       inkscape:locked="false"
       inkscape:label=""
       inkscape:color="rgb(0,0,255)" />
  </sodipodi:namedview>
  <metadata
     id="metadata5">
    <rdf:RDF>
      <cc:Work
         rdf:about="">
        <dc:format>image/svg+xml</dc:format>
        <dc:type
           rdf:resource="http://purl.org/dc/dcmitype/StillImage" />
        <dc:title></dc:title>
      </cc:Work>
    </rdf:RDF>
  </metadata>
  <rect
     style="fill:#0000ff;fill-opacity:1;stroke:none;stroke-width:7.99999905;stroke-linecap:square;stroke-linejoin:round;stroke-miterlimit:4;stroke-dasharray:none;stroke-dashoffset:0;stroke-opacity:1;paint-order:normal"
     id="rect1537"
     width="66.145828"
     height="66.145828"
     x="0"
     y="-1.2592736e-09" />
  <path
     style="fill:#ffffff;fill-opacity:1;stroke:none;stroke-width:0.2;stroke-linecap:square;stroke-linejoin:round;stroke-miterlimit:4;stroke-dasharray:none;stroke-dashoffset:0;stroke-opacity:1;paint-order:normal"
     id="path1600"
     d="m 2.8332351,24.426448 c 0.2591204,-0.375974 0.4187,-0.80739 0.5828793,-1.230371 0.1089539,-0.249437 0.2859356,-0.47053 0.3744487,-0.726163 0.1089641,-0.190379 0.2543618,-0.412241 0.3191806,-0.620206 0.153354,-0.138399 0.1187399,-0.413928 0.2874344,-0.526879 0.00892,-0.03552 0.00952,-0.07424 0.026776,-0.10654 0.073794,-0.13812 0.037066,0.03747 0.117644,-0.09117 0.043866,-0.07002 0.083831,-0.212078 0.134626,-0.298865 0.1755539,-0.120341 0.2358498,-0.323721 0.3681682,-0.485639 -0.010301,-0.1251 0.094649,-0.175941 0.1389079,-0.27208 0.01836,-0.03988 0.01874,-0.08631 0.035788,-0.12676 0.0136,-0.03224 0.036848,-0.05948 0.055272,-0.08921 0.01488,-0.04294 0.029776,-0.08588 0.044665,-0.128839 0.1647339,-0.215924 0.3340551,-0.428731 0.4509107,-0.675316 0.1224387,-0.250451 0.3313599,-0.443138 0.4630035,-0.686651 0.172926,-0.216741 0.3373579,-0.441917 0.4666961,-0.686805 0.026636,-0.02907 0.056827,-0.05522 0.079911,-0.08717 0.026561,-0.03676 0.040209,-0.08205 0.068163,-0.117759 0.035016,-0.06521 0.1180615,-0.08002 0.1617638,-0.135001 0.074706,-0.144359 0.030156,-0.0815 0.1291255,-0.191699 0.1666398,-0.218931 0.2802279,-0.466803 0.4390182,-0.690961 0.1670998,-0.1978 0.3678323,-0.371764 0.5172979,-0.583058 0.1999432,-0.120199 0.2897545,-0.384946 0.4920127,-0.489496 0.2443128,-0.1422 0.4177626,-0.369712 0.6513614,-0.524606 0.1336057,-0.226018 0.3868769,-0.299738 0.5645453,-0.469895 0.031807,-0.0144 0.06748,-0.0224 0.095412,-0.0434 0.1181977,-0.08884 0.2867587,-0.296344 0.4104327,-0.369443 1.856601,-1.097367 3.725604,-2.173613 5.588404,-3.26042 -1.780642,1.030663 -3.558776,2.065667 -5.341924,3.091989 -0.08318,0.04788 0.160096,-0.10614 0.243236,-0.1541 1.866862,-1.077002 3.718506,-2.180746 5.599108,-3.233578 1.757034,-0.9836518 -6.865394,4.195753 -5.236509,3.011914 1.938173,-1.25007 3.947768,-2.311833 5.992189,-3.4705593 0.570249,-0.3232046 -0.200149,0.2274093 0.280425,-0.1304206 0.243812,-0.13488 0.591611,-0.16166 0.809784,-0.3216959 0.116103,-0.09744 0.282261,-0.05592 0.410463,-0.1038198 0.03882,-0.0144 0.06353,-0.054039 0.09971,-0.07424 0.08764,-0.04894 0.149959,-0.053159 0.247137,-0.0726 0.04665,-0.0046 0.096,0.00279 0.139966,-0.0136 0.03731,-0.0138 0.05978,-0.05338 0.09432,-0.07308 0.159484,-0.090981 0.305512,-0.1651599 0.487629,-0.207348 0.149744,-0.05364 0.323785,-0.00299 0.473982,-0.040641 0.04276,-0.010801 0.07607,-0.04502 0.116501,-0.062641 0.102711,-0.04478 0.150259,-0.04758 0.260075,-0.06884 0.13896,-0.04608 0.301412,0.0088 0.439854,-0.02672 0.04014,-0.010196 0.06999,-0.04478 0.107618,-0.06216 0.09657,-0.04462 0.144338,-0.04738 0.248635,-0.06796 0.301653,-0.02432 0.613969,-0.06814 0.905519,0.022999 0.287619,0.070739 0.544814,0.2000679 0.839611,0.246234 0.24085,0.1675999 0.541398,0.1283599 0.795898,0.24164 0.106397,0.071919 0.245978,0.045559 0.359845,0.08358 0.1295,0.043241 0.23298,0.11166 0.368758,0.1438801 0.1136,0.09518 0.265873,0.09468 0.394994,0.1467799 0.13626,0.055 0.242772,0.12642 0.386777,0.1656601 0.03904,0.0058 0.07936,0.0062 0.117099,0.0178 0.05034,0.015399 0.0956,0.04442 0.144941,0.06284 0.180339,0.067321 0.368795,0.08638 0.559032,0.1012803 0.161899,0.1101402 0.367729,0.09192 0.542994,0.1489012 0.09157,0.02978 0.173982,0.08302 0.263805,0.117678 0.24679,0.05608 0.504783,0.13272 0.71966,0.269671 0.03556,0.0166 0.07406,0.02811 0.106678,0.04998 0.13986,0.09366 0.08306,0.09725 0.21442,0.16094 0.12932,0.06267 0.155619,0.02774 0.301814,0.11812 0.05644,0.05594 0.139121,0.03696 0.203958,0.06733 0.04534,0.02123 0.08204,0.05768 0.125481,0.08251 0.106365,0.06082 0.219529,0.08339 0.328536,0.142499 0.04076,0.015 0.08296,0.02652 0.122259,0.04501 0.210568,0.0991 0.07314,0.06479 0.282602,0.13696 0.15184,0.05233 0.283271,0.06653 0.430636,0.136499 0.11072,0.07759 0.255444,0.05528 0.375225,0.09544 0.131799,0.04419 0.275783,0.12712 0.393953,0.199202 0.246692,0.112179 0.515365,0.194379 0.742332,0.343031 0.08775,0.08164 0.212296,0.05566 0.312572,0.09272 0.12936,0.04781 0.260202,0.132279 0.367633,0.216074 0.188899,0.134041 0.364037,0.276174 0.568381,0.387053 0.06535,0.11438 0.17262,0.12362 0.269405,0.181222 0.110681,0.06588 0.158122,0.1234 0.284897,0.15594 0.266146,0.17582 0.552208,0.316029 0.825816,0.479415 0.276062,0.15494 0.567382,0.279634 0.810739,0.484436 0.237728,0.188999 0.522058,0.279664 0.775864,0.442265 0.319179,0.1945 0.677719,0.3068 1.001441,0.491917 0.298412,0.112041 0.57169,0.266815 0.853452,0.411916 0.245431,0.156739 0.51483,0.253182 0.760666,0.412424 0.247582,0.148078 0.509984,0.292438 0.737176,0.472566 0.129299,0.12444 0.241663,0.294106 0.405707,0.378091 0.03108,0.016 0.06535,0.02462 0.09804,0.03692 0.04182,0.02389 0.08366,0.04781 0.125481,0.07169 0.267555,0.115841 0.52293,0.28313 0.732446,0.486884 0.220829,0.155339 0.433991,0.325279 0.668256,0.461089 0.04384,0.01761 0.08983,0.03042 0.131539,0.05259 0.202466,0.1076 0.0782,0.07804 0.268611,0.156181 0.13988,0.05742 0.226571,0.05298 0.368191,0.128879 0.271913,0.07496 0.515632,0.215916 0.776567,0.320679 0.130359,0.107999 0.299881,0.128119 0.448491,0.192458 0.14228,0.0616 0.25539,0.135701 0.406083,0.179321 0.283821,0.03162 0.543801,0.135581 0.829288,0.16998 0.301902,0.02546 0.605293,0.02126 0.907973,0.0202 0.314481,-0.0018 0.628961,-0.003 0.943445,-0.0036 0.15508,0.01781 0.318915,-0.02323 0.473307,-4.71e-4 0.16728,0.02465 0.335328,0.0859 0.50367,0.114919 0.30513,0.0436 0.614017,0.0441 0.921572,0.04569 0.350175,0.0032 0.700336,0.0026 1.050522,6.36e-4 0.09532,-0.05737 0.214027,-0.0422 0.313135,-0.08565 0.04528,-0.0198 0.07867,-0.06026 0.121179,-0.08549 0.130779,-0.07763 0.266684,-0.104199 0.414159,-0.129439 0.08392,-0.12554 0.235749,-0.09859 0.348476,-0.15764 0.03544,-0.0186 0.05242,-0.06158 0.08522,-0.08446 0.07725,-0.05391 0.14552,-0.05876 0.2351,-0.07806 0.04594,-0.0045 0.09472,0.003 0.13784,-0.0134 0.03663,-0.014 0.06089,-0.0495 0.09136,-0.07424 0.03745,-0.015 0.07362,-0.03363 0.11236,-0.04477 0.14032,-0.04034 0.251617,-0.02938 0.385478,-0.0951 0.0469,-0.0132 0.09768,-0.01701 0.1407,-0.03985 0.04031,-0.02143 0.06532,-0.06466 0.10332,-0.08998 0.16248,-0.108261 0.36956,-0.116101 0.557044,-0.13006 0.220944,-0.18876 0.522542,-0.1058 0.769421,-0.213696 0.306948,-0.092 0.630066,-0.09703 0.947864,-0.103539 0.29892,-0.121421 0.623999,-0.13836 0.942434,-0.152261 0.321158,-0.0091 0.642498,-0.0061 0.963741,-0.005 0.294951,-0.118919 0.6154,-0.136439 0.929369,-0.15108 0.16092,0.03224 0.261106,-0.067 0.406082,-0.1066 0.04369,-0.01201 0.09248,-0.0072 0.133081,-0.02736 0.118438,-0.109661 0.05271,-0.06473 0.197019,-0.13506 0.07889,-0.05196 0.179381,-0.0126 0.26151,-0.04549 0.03657,-0.0146 0.05719,-0.05516 0.09096,-0.07542 0.11284,-0.06768 0.251153,-0.07259 0.37774,-0.08467 0.03095,-0.02446 0.05876,-0.05369 0.09296,-0.07342 0.03505,-0.02021 0.0751,-0.03012 0.112639,-0.04516 0.0428,-0.0084 0.08954,-0.0053 0.12838,-0.02522 0.03498,-0.01781 0.05567,-0.05534 0.08348,-0.08302 0.03594,-0.01659 0.07183,-0.03314 0.107714,-0.04972 -1.798733,1.033436 -3.597459,2.066872 -5.396189,3.100308 17.989355,-10.3269223 -3.198341,1.745073 0.629568,-0.383705 1.80287,-1.438048 0.340613,-0.281748 5.727873,-3.330856 0.04827,-0.0273 0.111781,-0.01141 0.16324,-0.03198 0.04424,-0.01781 0.07596,-0.05836 0.118,-0.08092 0.101745,-0.0546 0.1616,-0.05945 0.273157,-0.08386 0.146458,-0.18754 0.312905,-0.11412 0.480683,-0.17708 0.03715,-0.014 0.05904,-0.05402 0.09348,-0.07376 0.0352,-0.02021 0.07549,-0.02984 0.11326,-0.04479 0.04296,-0.0082 0.08981,-0.0049 0.12884,-0.02454 0.304637,-0.15376 -0.1471,-0.0226 0.19122,-0.13176 0.158781,-0.05123 0.216261,-9.53e-4 0.355187,-0.11352 2.038391,-0.812049 0.17352,-0.07511 -5.294919,3.031682 -0.03344,0.019 0.06312,-0.04495 0.09839,-0.0603 0.0327,-0.0142 0.07222,-0.01019 0.103439,-0.02748 0.03932,-0.02172 0.145781,-0.14086 0.17294,-0.16988 0.20132,-0.0885 0.357774,-0.227278 0.563398,-0.311829 0.11344,-0.05959 0.085,-0.19664 0.147741,-0.288646 0.02434,-0.03566 0.184279,-0.15826 0.232494,-0.1788 0.02504,-0.02856 0.04243,-0.06631 0.07512,-0.08567 6.008926,-3.562566 8.728398,-5.058042 0.180939,-0.133301 -0.03392,0.0196 0.05627,-0.05566 0.09033,-0.0749 0.231796,-0.13088 -0.02868,0.08512 0.18722,-0.11186 0.13248,-0.05564 0.07249,-0.0148 0.17652,-0.127461 0,0 5.947416,-2.391811 5.947416,-2.391811 v 0 c -0.13076,0.07574 -0.0743,0.02365 -0.16228,0.163541 -0.294052,0.158918 0.11164,-0.07871 -0.169982,0.156158 -0.0282,0.0235 -0.06997,0.02374 -0.101724,0.04218 -1.858035,1.07917 -3.661921,2.255879 -5.566742,3.250144 -1.841072,0.960989 3.585172,-2.097307 5.375269,-3.150199 0.02877,-0.017 -0.06059,0.02802 -0.09086,0.04203 -0.02099,0.0324 -0.03275,0.07318 -0.06298,0.09716 -0.02498,0.0198 -0.06542,0.0084 -0.09215,0.02587 -0.028,0.01821 -0.03403,0.0634 -0.0648,0.07647 -0.114359,0.04852 -0.155798,-0.08737 -0.215041,0.15184 -0.0271,0.08652 -0.04475,0.18508 -0.113419,0.252844 -0.02604,0.0257 -0.0694,0.02801 -0.09616,0.05296 -0.03138,0.02925 -0.04129,0.07752 -0.07382,0.105499 -0.368585,0.31656 0.174839,-0.261942 -0.1848,0.137381 -0.244053,0.05195 -0.18828,0.144018 -0.376942,0.251561 -5.63872,3.214211 -3.623864,2.356985 -5.715199,3.241429 -0.19798,0.02768 -0.267639,0.137939 -0.441776,0.191398 -0.04159,0.0128 -0.08756,0.0065 -0.12896,0.0198 -0.03811,0.01221 -0.07089,0.03706 -0.106344,0.05559 -0.46862,0.19812 0.276781,-0.10608 -0.242586,0.06646 -0.157299,0.05226 -0.269801,0.214103 -0.450396,0.209895 -0.05123,0.02921 -0.180639,0.105179 -0.234709,0.12708 -0.04556,0.0184 -0.09648,0.0226 -0.140779,0.0439 -0.04457,0.02142 -0.165741,0.10766 -0.122922,0.08294 5.545788,-3.200736 7.160688,-4.015346 5.200164,-3.022602 -0.104379,0.09582 -0.190959,0.1548 -0.311114,0.224152 -1.861607,1.07457 -3.730428,2.136914 -5.579562,3.23281 -1.782959,1.056676 3.587346,-2.076765 5.381024,-3.115144 -0.03243,0.0192 -0.0649,0.03834 -0.09735,0.05752 -1.861714,1.075557 -3.721961,2.15364 -5.585133,3.22667 -0.182859,0.1053 -0.02661,0.0068 -0.236807,0.06978 -0.224043,0.06716 0.0089,0.04254 -0.222487,0.09643 -0.04381,0.01019 -0.0895,0.0096 -0.13426,0.0144 -0.105144,0.04946 -0.216363,0.12448 -0.329826,0.15276 -0.125061,0.03117 -0.240938,0.0404 -0.350721,0.12266 -0.267537,0.09135 -0.558449,0.08194 -0.837601,0.106819 -0.31942,0.04551 -0.638341,0.136821 -0.962799,0.106081 -0.310277,0.0043 -0.621391,0.0098 -0.929424,0.051 -0.317148,0.04772 -0.629156,0.142861 -0.951347,0.1412 -0.301554,0.03883 -0.593612,0.11178 -0.885496,0.195979 -0.27528,0.02919 -0.505342,0.176982 -0.779243,0.205027 -0.159842,0.06782 -0.312024,0.183801 -0.478089,0.232857 -0.0484,0.0142 -0.100316,0.01301 -0.1492,0.02563 -0.04729,0.01221 -0.09217,0.03216 -0.13828,0.04826 -0.177259,0.03548 -0.30417,0.13894 -0.473679,0.18592 -0.04237,0.0118 -0.08878,0.0052 -0.13046,0.0192 -0.03813,0.0128 -0.06981,0.03987 -0.104745,0.05978 -0.05113,0.03266 -0.146399,0.09819 -0.205345,0.117001 -0.04185,0.0134 -0.08821,0.0082 -0.129998,0.02176 -0.124641,0.0404 -0.224277,0.138699 -0.36766,0.12208 -0.304565,0.12614 -0.606787,0.188381 -0.939955,0.149299 -0.3567,-0.0016 -0.713641,3.32e-4 -1.070135,-0.0118 -0.325757,-0.01861 -0.650312,-0.05162 -0.970555,-0.116299 -0.304964,-0.04974 -0.60692,-0.02481 -0.915451,-0.0265 -0.316814,5.06e-4 -0.633701,0.002 -0.950442,-0.0061 -0.326347,-0.012 -0.653887,-0.03179 -0.972471,-0.1091 -0.304294,-0.07734 -0.613661,-0.14476 -0.90335,-0.265569 -0.281893,-0.13768 -0.56871,-0.263981 -0.856334,-0.389267 -0.260469,-0.11646 -0.534385,-0.19532 -0.791591,-0.319178 -0.29318,-0.09032 -0.541735,-0.2812 -0.807329,-0.42913 -0.249474,-0.170679 -0.512468,-0.323344 -0.736611,-0.528313 -0.210277,-0.144961 -0.425664,-0.27736 -0.654944,-0.391205 -0.251021,-0.144608 -0.453376,-0.34194 -0.666112,-0.535048 -0.235468,-0.139759 -0.459662,-0.297407 -0.703819,-0.422129 -0.25502,-0.12546 -0.505404,-0.258126 -0.752363,-0.398964 -0.269364,-0.15302 -0.565549,-0.25315 -0.830925,-0.414928 -0.34469,-0.15882 -0.691039,-0.314649 -1.018743,-0.507166 -0.290857,-0.14134 -0.571867,-0.296003 -0.828097,-0.495686 -0.249715,-0.14606 -0.502195,-0.287543 -0.754938,-0.428758 -0.275168,-0.142999 -0.538403,-0.309514 -0.825208,-0.428942 -0.20439,-0.12784 -0.404665,-0.25922 -0.598616,-0.401392 -0.183399,-0.130139 -0.367191,-0.259732 -0.560091,-0.37507 -0.229608,-0.06656 -0.450021,-0.16048 -0.657162,-0.281653 -0.249228,-0.08689 -0.478748,-0.22814 -0.724729,-0.324673 -0.247655,-0.07915 -0.496873,-0.147841 -0.735604,-0.254262 -0.300715,-0.07972 -0.573712,-0.232781 -0.861684,-0.347172 -0.23263,-0.08332 -0.448343,-0.206713 -0.675023,-0.304406 -0.225871,-0.07132 -0.394453,-0.244112 -0.617584,-0.321345 -0.232688,-0.0503 -0.45371,-0.15648 -0.683226,-0.22053 -0.233909,-0.07858 -0.485262,-0.130601 -0.727347,-0.177341 -0.305334,-0.07253 -0.603217,-0.17472 -0.898846,-0.277176 -0.249407,-0.112581 -0.50672,-0.207632 -0.768855,-0.285714 -0.236263,-0.09142 -0.481888,-0.13708 -0.721802,-0.220719 -0.268558,-0.02548 -0.501877,-0.16758 -0.764767,-0.215102 -0.263007,-0.08002 -0.520422,-0.1791 -0.799746,-0.175559 -0.256508,0.05954 -0.528049,0.05424 -0.775857,0.156581 -0.26197,0.07799 -0.536039,0.04824 -0.791641,0.159858 -0.268206,0.086 -0.556142,0.07054 -0.802128,0.227702 -0.157891,0.08858 -0.317557,0.172341 -0.495592,0.212786 -0.04415,0.01001 -0.09132,0.0026 -0.135082,0.0142 -0.04007,0.0106 -0.07548,0.03432 -0.113212,0.05147 -0.234072,0.11652 -0.490607,0.150141 -0.715024,0.293896 -0.279057,0.06149 -0.531324,0.218115 -0.781766,0.351164 -0.09545,0.03228 -0.35924,0.18226 -0.271932,0.13198 9.296375,-5.3545246 6.787951,-3.9882821 4.949163,-2.848648 -1.943306,1.045687 -3.567351,1.91784 -5.704409,3.31584 -1.7206657,1.125604 3.556735,-2.064076 5.338399,-3.090403 0.08234,-0.04744 -0.164223,0.09569 -0.246455,0.143319 -1.863677,1.079617 -3.723216,2.166355 -5.584826,3.24953 1.774716,-1.036621 3.549433,-2.073243 5.32415,-3.109866 -0.16271,0.08262 -0.389814,0.25156 -0.491948,0.40099 -0.299681,0.162419 0.11381,-0.07946 -0.176626,0.157882 -0.03039,0.02485 -0.0756,0.02498 -0.107791,0.04744 -0.03538,0.02469 -0.05407,0.07004 -0.09142,0.09164 -0.03641,0.02109 -0.08141,0.02126 -0.122118,0.03191 -0.03569,0.02257 -0.0714,0.04516 -0.107098,0.06776 -0.175128,0.228773 -0.440121,0.352284 -0.614395,0.586182 -0.145211,0.15348 -0.179591,0.04887 -0.288577,0.156619 -0.03003,0.02968 -0.03755,0.07741 -0.06752,0.107162 -0.233792,0.231971 0.04506,-0.162221 -0.165236,0.162659 -0.232621,0.13924 0.0373,-0.0413 -0.17243,0.17054 -0.0284,0.0287 -0.07324,0.03723 -0.10157,0.06603 -0.03325,0.03376 -0.04679,0.08357 -0.0795,0.11786 -0.239761,0.251252 0.02839,-0.13078 -0.184332,0.19862 -0.06351,0.04883 -0.141081,0.08218 -0.193191,0.14306 -0.02991,0.03495 -0.03881,0.08421 -0.06664,0.12082 -0.02429,0.03196 -0.06583,0.04879 -0.08786,0.08234 -0.02711,0.04128 -0.03751,0.09135 -0.05626,0.13704 -0.02353,0.03334 -0.04704,0.06668 -0.07057,0.100005 -0.01833,0.03811 -0.03662,0.07622 -0.05495,0.114341 -0.02608,0.02384 -0.06017,0.04116 -0.07827,0.07152 -0.08599,0.144359 0.0025,0.1269 -0.11588,0.244758 -0.0265,0.0264 -0.06987,0.0313 -0.09608,0.05798 -0.03108,0.0316 -0.04752,0.07484 -0.07125,0.112259 -0.194182,0.142201 -0.0057,-0.016 -0.167965,0.195501 -0.0264,0.03437 -0.06921,0.05442 -0.09363,0.09023 -0.08005,0.117361 -0.1274,0.265037 -0.218952,0.377792 -0.137852,0.126561 -0.189546,0.305254 -0.314232,0.445213 -0.0274,0.03074 -0.07106,0.04443 -0.09721,0.07626 -0.03149,0.03832 -0.04823,0.08666 -0.07232,0.13 -0.185952,0.19806 -0.251453,0.480362 -0.422504,0.69323 -0.162212,0.09038 -0.01228,-0.0146 -0.128853,0.149759 -0.01718,0.02424 -0.05433,0.03121 -0.0679,0.05762 -0.05055,0.09838 -0.01069,0.219244 -0.135883,0.273899 -0.0245,0.114321 -0.0628,0.241673 -0.129223,0.340613 -0.01912,0.02847 -0.05758,0.04182 -0.07319,0.07238 -0.04012,0.07856 -0.01972,0.18056 -0.08423,0.250881 -0.0404,0.03021 -0.174752,0.106839 -0.196756,0.150599 -0.03184,0.06334 0.002,0.15498 -0.05603,0.21179 -0.01645,0.016 -0.04505,0.0093 -0.06757,0.0142 -0.04134,0.175541 -0.148869,0.157661 -0.218218,0.291654 -0.02131,0.04118 -0.01927,0.09098 -0.03453,0.13478 -0.013262,0.03801 -0.033833,0.07308 -0.050733,0.10962 -0.1116715,0.109 -0.074553,0.193819 -0.1563685,0.313987 -0.018772,0.02758 -0.056182,0.0404 -0.071572,0.07002 -0.040381,0.07767 -0.02015,0.179699 -0.088319,0.247354 -0.1302111,0.13116 -0.034645,0.0114 -0.1162462,0.215262 -0.1176084,0.293977 0.00206,-0.04174 -0.1468797,0.212112 -0.056151,0.09574 -0.057498,0.219138 -0.1446787,0.299917 -0.2810505,0.360139 -0.3873579,0.816802 -0.5662679,1.231191 0,0 -5.8372182,2.602012 -5.8372182,2.602012 z"
     inkscape:connector-curvature="0" />
  <path
     style="fill:#ffffff;fill-opacity:1;stroke:none;stroke-width:0.2;stroke-linecap:square;stroke-linejoin:round;stroke-miterlimit:4;stroke-dasharray:none;stroke-dashoffset:0;stroke-opacity:1;paint-order:normal"
     id="path1602"
     d="m 3.2938061,58.169795 c 0.2650062,-0.346292 0.4625344,-0.736869 0.6947764,-1.10491 0.124584,-0.274384 0.2735586,-0.542856 0.383735,-0.824208 0.16141,-0.206424 0.2587012,-0.436729 0.3348107,-0.685108 0.027582,-0.19588 0.19584,-0.258784 0.3149505,-0.387457 0.3463658,-0.374183 -0.1639581,0.109241 0.1674179,-0.19686 0.159584,-0.210847 0.3610416,-0.405364 0.4700841,-0.647642 0.1257849,-0.223905 0.2908029,-0.403319 0.3937644,-0.641535 0.1616557,-0.243554 0.334543,-0.463344 0.5447923,-0.66704 0.1580117,-0.226083 0.3316699,-0.431266 0.4792869,-0.665144 0.2504133,-0.12192 0.40634,-0.333724 0.599549,-0.524669 0.1440561,-0.07912 0.2038475,-0.237973 0.3145279,-0.348973 0.1055442,-0.10586 0.1903455,-0.115782 0.2891996,-0.241878 0.1283718,-0.09413 0.2029513,-0.236567 0.3049712,-0.354139 0.2248085,-0.259083 -0.069524,0.167161 0.1504752,-0.16964 0.1895367,-0.116839 0.2909001,-0.385517 0.4809875,-0.48342 0.2536088,-0.244047 -0.074664,0.05093 0.1853081,-0.123159 0.032774,-0.02194 0.052163,-0.06022 0.084422,-0.0829 0.028384,-0.02001 0.0671,-0.02214 0.094775,-0.04305 0.065846,-0.04974 0.1156263,-0.118239 0.1794499,-0.17054 0.2053627,-0.198761 0.4651593,-0.331345 0.6638353,-0.534274 0.07312,-0.0875 0.195432,-0.17514 0.292732,-0.235604 0.03095,-0.01921 0.07111,-0.02032 0.101745,-0.0401 0.06937,-0.04478 0.125024,-0.10834 0.192683,-0.155661 1.731514,-1.377612 4.582111,-2.700733 5.832695,-3.412523 0.04735,-0.02697 0.109202,-0.01659 0.158688,-0.03932 0.153438,-0.115741 0.07131,-0.06772 0.246158,-0.14444 2.935658,-1.631336 -6.721167,4.029749 -4.68824,2.708636 1.783547,1.219111 3.573974,-2.974265 5.760552,-3.230986 0.292486,-0.03434 0.034,0.03157 0.263602,-0.08046 0.187654,-0.09155 0.06816,0.02242 0.198529,-0.13874 -0.0748,-0.0034 0.295903,-0.12902 0.225908,-0.0885 -7.690098,4.451359 -6.755823,3.810727 0.183072,-0.137859 0.03725,-0.0212 0.163071,-0.04716 0.125985,-0.02566 -1.793763,1.039198 -3.601135,2.054728 -5.401703,3.082092 1.862791,-1.071624 3.725583,-2.14325 5.588373,-3.214871 0.04228,-0.0082 0.08651,-0.0096 0.126864,-0.02476 0.03971,-0.0148 0.07114,-0.0469 0.110044,-0.06375 0.169552,-0.07342 0.233821,-0.03193 0.393458,-0.152759 0.121461,-0.08816 0.273824,-0.06403 0.407996,-0.102062 0.04433,-0.0126 0.08169,-0.04323 0.124821,-0.05939 0.105943,-0.0396 0.189158,-0.0495 0.300098,-0.06969 0.05359,-0.0061 0.109459,-0.0018 0.16082,-0.0184 0.109059,-0.06635 0.120679,-0.08317 0.244116,-0.11948 0.163721,-0.04816 0.237254,-0.0132 0.380769,-0.119621 0.252876,-0.135658 0.548474,-0.04518 0.805228,-0.14994 0.14542,-0.06487 0.312884,-0.04226 0.462673,-0.08044 0.04909,-0.0126 0.09212,-0.04248 0.139919,-0.05918 0.119659,-0.04176 0.19286,-0.05102 0.317256,-0.07488 0.158179,-0.05211 0.339245,-0.0036 0.497722,-0.04184 0.04406,-0.01061 0.0795,-0.04387 0.12122,-0.06159 0.1089,-0.04628 0.145659,-0.04759 0.261556,-0.07114 0.298711,-0.0377 0.600861,-0.03158 0.901347,-0.03091 0.314973,0.0017 0.629948,0.0032 0.944926,0.0041 0.246124,-0.13856 0.525975,-0.147121 0.800906,-0.156901 0.151018,0.014 0.311035,-0.02663 0.461344,-0.0038 0.1668,0.02528 0.334192,0.0874 0.502152,0.11684 0.302835,0.0041 0.567423,0.145161 0.864522,0.186081 0.04296,0.0034 0.08696,-2.7e-5 0.128861,0.01001 0.138518,0.05156 0.16336,0.06601 0.30423,0.099 0.144039,0.03374 0.289712,0.04612 0.436723,0.05756 0.211881,0.09178 0.444426,0.09536 0.652873,0.194701 0.227059,0.125319 0.114919,0.06969 0.335464,0.168798 0.1826,0.102176 0.398331,0.07078 0.591851,0.11678 0.101518,0.02414 0.19576,0.07258 0.295284,0.103945 0.30459,0.0288 0.570331,0.175141 0.851952,0.281502 0.29773,0.17828 0.62892,0.281625 0.940306,0.428288 0.136559,0.08179 0.302553,0.07097 0.448334,0.115941 0.14334,0.04421 0.267703,0.112779 0.415816,0.14766 0.29634,0.14484 0.562634,0.341259 0.877556,0.446228 0.278987,0.148479 0.588146,0.250568 0.851495,0.424065 0.05682,0.06301 0.1446,0.04944 0.212563,0.08382 0.04472,0.02261 0.08091,0.05943 0.1239,0.08516 0.102878,0.06154 0.215126,0.08463 0.32139,0.142861 0.24712,0.10894 0.474707,0.253258 0.7164,0.374127 0.256097,0.03244 0.492462,0.1239 0.746533,0.171381 0.158361,0.11898 0.352408,0.12322 0.531095,0.177279 0.09808,0.02968 0.19042,0.07636 0.288318,0.106621 0.04634,0.0098 0.09456,0.0128 0.139,0.02914 0.05373,0.0198 0.101045,0.05394 0.152979,0.07797 0.160741,0.07435 0.319355,0.09882 0.494027,0.11272 0.11058,0.08791 0.26323,0.08224 0.385565,0.13422 0.1262,0.05362 0.21496,0.12348 0.350023,0.1595 0.295024,0.117498 0.542525,0.319293 0.839699,0.431544 0.132821,0.1046 0.303137,0.120238 0.45289,0.1814 0.143061,0.05842 0.2585,0.13116 0.409252,0.17282 0.26241,0.1067 0.482877,0.281367 0.765617,0.331556 0.237688,0.1183 0.485274,0.231076 0.745398,0.291428 0.143299,0.131341 0.335329,0.1222 0.502618,0.1815 0.08838,0.03131 0.16762,0.0847 0.254827,0.119199 0.237764,0.07424 0.450636,0.21071 0.674522,0.319802 0.231192,0.181161 0.512007,0.263249 0.771069,0.390151 0.276138,0.12012 0.538143,0.267885 0.821051,0.375946 0.135479,0.14544 0.320697,0.150461 0.488445,0.215136 0.08584,0.0331 0.16264,0.08671 0.247797,0.12156 0.15868,0.06841 0.336624,0.10482 0.496888,0.16902 0.09304,0.03725 0.177499,0.09361 0.269741,0.13278 0.108619,0.05994 0.24277,0.02635 0.355707,0.05789 0.13246,0.03699 0.246588,0.103622 0.383886,0.133459 0.165659,0.04588 0.345853,-7.94e-4 0.511817,0.02892 0.110038,0.0198 0.214399,0.06388 0.323103,0.09002 0.1447,0.0513 0.307631,0.02153 0.454006,0.05546 0.14508,0.03363 0.281767,0.1015 0.429242,0.134139 0.04198,0.0055 0.08525,0.0052 0.12598,0.0168 0.685826,0.1975 -0.342717,-0.05728 0.294019,0.10646 0.139841,0.03596 0.281779,0.04836 0.4251,0.06009 0.04884,0.0022 0.09868,-0.0034 0.146541,0.0068 0.102475,0.02162 0.19648,0.07372 0.297862,0.09998 0.1261,0.03266 0.253461,0.04258 0.3828,0.05179 0.291354,0.0128 0.583124,0.0098 0.874672,0.0087 0.314263,-0.0014 0.628523,-0.002 0.942784,-0.0024 0.315648,-3.48e-4 0.631291,-3.54e-4 0.946934,-3.69e-4 0.103017,-0.02108 0.212424,0.02109 0.31543,2e-6 0.08407,-0.01721 0.155199,-0.07546 0.237887,-0.09842 0.04283,-0.0118 0.09082,-0.0074 0.13044,-0.02762 0.03582,-0.0182 0.05828,-0.05532 0.08742,-0.08298 0.09964,-0.09889 0.253027,-0.05373 0.366776,-0.0999 0.0144,-0.0057 0.280629,-0.183439 0.301577,-0.1998 2.045949,-0.812614 0.221145,-0.09488 -5.243574,3.027254 -0.03841,0.02196 0.07302,-0.05 0.111119,-0.07249 0.123799,-0.07301 0.237012,-0.152261 0.368922,-0.209403 1.835309,-1.415017 -0.911154,0.694813 5.701654,-3.316444 1.766817,-1.071735 -3.577864,2.068816 -5.37015,3.097397 -0.267697,0.15364 0.252545,-0.1474 0.300343,-0.188122 1.854887,-1.376741 2.258377,-1.339504 5.823752,-3.377395 0.150301,-0.0859 0.255594,-0.09526 0.390843,-0.211121 0.283641,-0.101303 0.544165,-0.253268 0.825934,-0.35984 0.05439,-0.0136 0.11208,-0.0176 0.1632,-0.0405 0.04498,-0.0202 0.07711,-0.06208 0.11984,-0.0867 0.176101,-0.101458 0.342084,-0.18754 0.541068,-0.237551 0.09062,-0.133799 0.248897,-0.113099 0.371745,-0.17646 0.03719,-0.0192 0.0571,-0.06228 0.09186,-0.08559 0.08213,-0.0551 0.148799,-0.05974 0.243168,-0.08014 -0.09987,-0.0086 0.259639,-0.173141 0.192039,-0.1341 -1.789469,1.033328 -3.584518,2.056974 -5.374147,3.090014 -0.04228,0.02439 0.09011,-0.03845 0.131758,-0.06392 0.04466,-0.02732 0.08061,-0.0676 0.125902,-0.09381 1.866655,-1.080025 3.73935,-2.149573 5.609027,-3.22436 0.08104,-0.08382 0.203031,-0.08016 0.297684,-0.133778 0.04472,-0.02534 0.07514,-0.0709 0.117901,-0.09944 0.04137,-0.02764 0.17598,-0.09309 0.132939,-0.06804 -5.085333,2.95681 -7.166397,4.102576 -5.23385,3.037536 0.06792,-0.122281 0.223758,-0.140662 0.317294,-0.228542 0.08472,-0.07963 0.16878,-0.199901 0.226606,-0.300057 0.13254,-0.24496 0.383302,-0.365285 0.564688,-0.560031 0.13914,-0.07169 0.232381,-0.197439 0.343896,-0.300733 0.210512,-0.194999 -0.03663,0.11114 0.161401,-0.15376 0.06906,-0.03476 0.07594,-0.124298 0.131299,-0.16952 0.05054,-0.04126 0.11882,-0.02001 0.174541,-0.03647 0.04392,-0.01301 0.08077,-0.04358 0.123039,-0.06134 0.01018,-0.03545 0.02048,-0.07094 0.0307,-0.1064 0,0 5.869752,-2.605775 5.869752,-2.605775 v 0 c -0.01959,0.0148 -0.0391,0.02974 -0.05866,0.04461 -0.01008,0.11308 -0.03403,0.392607 -0.15154,0.454758 -0.02974,0.0158 -0.06718,0.0028 -0.100758,0.0043 -0.02811,0.017 -0.05619,0.03416 -0.0843,0.05124 -0.2275,0.129079 0.04313,-0.04415 -0.15926,0.160978 -0.02546,0.02578 -0.06845,0.02877 -0.09403,0.05442 -0.03053,0.03065 -0.0389,0.07905 -0.06953,0.109659 -0.25572,0.255492 0.06596,-0.182399 -0.172639,0.16748 -0.292386,0.16758 0.0928,-0.07071 -0.187921,0.16848 -0.03213,0.02737 -0.07906,0.03246 -0.112299,0.05846 -0.03646,0.0285 -0.05565,0.07604 -0.09353,0.102539 -0.03487,0.02438 -0.07932,0.03072 -0.119,0.04606 -0.03169,0.02542 -0.06338,0.05082 -0.09505,0.07624 -0.183119,0.134321 -0.0042,-0.01781 -0.1542,0.19086 -0.02428,0.03372 -0.06608,0.05271 -0.08877,0.0875 -0.08673,0.132979 -0.101447,0.280872 -0.273712,0.343243 -1.521962,1.882268 -4.110602,2.549709 -6.228361,3.662242 1.778267,-1.027869 3.557837,-2.053489 5.3348,-3.083609 0.04296,-0.02491 -0.09189,0.0394 -0.13256,0.06783 -0.04055,0.02832 -0.06608,0.07596 -0.108819,0.100844 -0.649531,0.378225 -3.778457,2.603417 -5.820965,3.310376 -0.04815,0.03266 -0.150201,0.1058 -0.205037,0.12728 -0.04129,0.01621 -0.08821,0.015 -0.12908,0.0321 -0.12438,0.05226 -0.219997,0.166661 -0.36603,0.171581 -0.258425,0.15522 -0.529358,0.265288 -0.80598,0.37828 -0.265106,0.13904 -0.550009,0.235638 -0.798487,0.405795 -0.234313,0.07484 -0.06005,0.0084 -0.277319,0.121182 -0.0452,0.0235 -0.18202,0.0911 -0.13798,0.06556 9.650217,-5.59282 6.894154,-4.104108 5.138706,-2.962243 -0.315124,0.17906 0.128879,-0.09042 -0.18246,0.163981 -0.0319,0.02611 -0.07659,0.0313 -0.112281,0.05189 -1.863295,1.07495 -3.707737,2.182899 -5.584308,3.234501 -1.800089,1.008741 3.570317,-2.069864 5.354831,-3.105908 0.03907,-0.02266 -0.07891,0.04384 -0.118381,0.06576 -0.127099,0.13044 -0.303551,0.223896 -0.463549,0.315809 -5.778016,3.319141 -3.712686,2.175753 -5.720286,3.286337 -0.245472,0.0746 -0.481754,0.14174 -0.71759,0.244184 -0.298139,0.0038 -0.592475,0.05121 -0.893382,0.0188 -0.315474,1.4e-4 -0.630946,3.83e-4 -0.946419,10e-4 -0.315921,4.88e-4 -0.631867,0.0017 -0.947765,-0.0026 -0.312067,-0.007 -0.62574,-0.01639 -0.93293,-0.0771 -0.27508,-0.06061 -0.542375,-0.14624 -0.824247,-0.16668 C 45.944574,54.938509 45.654958,54.84023 45.355799,54.77867 45.075016,54.6969 44.784378,54.68194 44.499898,54.611349 44.207659,54.564459 43.904241,54.576009 43.624639,54.45711 43.363483,54.365874 43.087721,54.330147 42.841161,54.1959 42.589359,54.084641 42.319929,54.01342 42.070399,53.895653 41.827524,53.783852 41.579432,53.684589 41.345258,53.553302 41.07219,53.422854 40.802319,53.287758 40.524478,53.16768 40.243669,53.05452 39.987349,52.893768 39.716021,52.76112 39.512417,52.65158 39.293081,52.573579 39.078206,52.48963 38.840161,52.393811 38.59214,52.31659 38.35413,52.219397 38.102404,52.119262 37.851971,52.016529 37.59892,51.922499 37.340415,51.8025 37.096577,51.653015 36.82171,51.570078 36.531064,51.433238 36.233767,51.313281 35.945376,51.171092 35.67655,51.026232 35.40855,50.880601 35.1145,50.792178 c -0.212759,-0.09857 -0.437459,-0.17932 -0.670159,-0.213532 -0.278593,-0.08339 -0.539926,-0.210542 -0.822322,-0.280934 -0.262725,-0.08594 -0.527905,-0.16996 -0.792382,-0.246937 -0.290759,-0.08433 -0.593626,-0.131459 -0.85122,-0.301992 -0.222995,-0.129938 -0.457984,-0.240024 -0.693045,-0.34648 -0.237976,-0.09311 -0.456004,-0.232137 -0.68269,-0.349034 -0.271189,-0.115062 -0.520006,-0.280317 -0.800504,-0.376621 -0.277442,-0.14182 -0.546776,-0.312463 -0.852917,-0.384814 -0.294745,-0.11304 -0.602316,-0.18644 -0.886943,-0.32698 -0.315142,-0.12174 -0.60919,-0.292068 -0.929184,-0.402062 -0.272825,-0.103778 -0.558452,-0.14626 -0.835203,-0.236756 -0.309199,-0.08651 -0.631278,-0.132561 -0.916715,-0.294863 -0.28344,-0.120141 -0.594151,-0.176041 -0.897976,-0.217766 -0.302121,-0.0618 -0.597816,-0.148979 -0.902026,-0.196578 -0.277616,-0.07812 -0.550624,-0.135161 -0.837984,-0.166321 -0.292247,-0.04408 -0.578231,-0.0142 -0.870475,0.02838 -0.276613,0.04884 -0.551413,0.15122 -0.834758,0.09923 -0.311611,7.8e-5 -0.623429,-0.001 -0.93476,0.014 -0.280997,0.0184 -0.561522,0.04905 -0.829432,0.1415 -0.287287,0.0809 -0.588202,0.05744 -0.871468,0.16498 -0.307637,0.08822 -0.623183,0.12826 -0.933488,0.207322 -0.274228,0.0176 -0.509677,0.120661 -0.760766,0.224861 -0.187736,0.0172 -0.332803,0.111341 -0.515044,0.147421 -0.0498,0.0098 -0.101807,0.0053 -0.151424,0.01621 -0.04811,0.0104 -0.09337,0.03123 -0.140044,0.04687 -0.263684,0.100251 -0.533408,0.1676 -0.77722,0.314656 -0.216915,0.04824 -0.424143,0.16538 -0.609099,0.284139 1.794874,-1.034669 3.589745,-2.069335 5.384617,-3.104004 -1.866875,1.065912 -3.736553,2.126929 -5.600625,3.197732 -0.03353,0.0192 -0.124665,0.0911 -0.09112,0.07183 10.983205,-6.306808 3.227703,-1.904285 -0.414697,0.216567 -0.117049,0.0158 -0.279415,0.04689 -0.390805,0.08244 -0.06763,0.0216 -0.172073,0.09656 -0.229845,0.13482 1.785312,-1.027545 3.570623,-2.055093 5.355935,-3.08264 -2.122833,1.138804 -4.130999,2.496045 -6.274768,3.584622 -0.162627,0.09182 -0.07621,0.05263 -0.260134,0.115681 -0.0446,0.02244 -0.166784,0.10962 -0.123545,0.08467 10.231445,-5.90482 6.967535,-3.853112 5.09192,-2.964877 -0.06153,0.04928 -0.137504,0.07941 -0.196114,0.13212 -0.03247,0.02919 -0.04459,0.07732 -0.07833,0.10506 -0.03045,0.02505 -0.07573,0.02555 -0.108003,0.04816 -0.205665,0.144161 0.03137,0.0595 -0.215026,0.124581 -0.2994,0.18634 0.09082,-0.07331 -0.201468,0.183959 -0.03529,0.03106 -0.0849,0.04222 -0.121225,0.07205 -0.04026,0.03306 -0.06479,0.08302 -0.106136,0.1147 -0.454129,0.347936 0.181988,-0.221493 -0.233238,0.161579 -0.05955,0.04772 -0.134638,0.07574 -0.188773,0.12954 -0.03038,0.03017 -0.03817,0.07865 -0.06903,0.10834 -0.02629,0.02528 -0.06967,0.02665 -0.09678,0.05104 -0.1901,0.17116 0.04738,0.05351 -0.176898,0.144601 -0.145568,0.154519 -0.179091,0.0474 -0.286414,0.153719 -0.0294,0.02914 -0.03568,0.07661 -0.06511,0.105741 -0.218975,0.216705 0.03336,-0.154101 -0.157004,0.15536 -0.219581,0.1204 0.03474,-0.03891 -0.156667,0.156759 -0.02473,0.02528 -0.06719,0.02797 -0.09163,0.05355 -0.02947,0.03083 -0.03631,0.07865 -0.06497,0.11026 -0.207029,0.22814 0.0226,-0.144001 -0.158128,0.18248 -0.201414,0.171481 0.01314,-0.0311 -0.166136,0.217582 -0.121674,0.168761 -0.376715,0.174261 -0.442041,0.401921 -0.09113,0.08659 -0.232187,0.177361 -0.308274,0.276113 -0.08118,0.105381 -0.12116,0.242075 -0.243136,0.31914 -0.22303,0.04388 -0.151867,0.05108 -0.287196,0.198241 -0.02809,0.03053 -0.07257,0.04302 -0.09998,0.07418 -0.342324,0.389256 0.181001,-0.11076 -0.179382,0.221662 -0.06828,0.12784 -0.154767,0.275085 -0.263145,0.374971 -0.03256,0.03 -0.07964,0.04087 -0.112575,0.07044 -0.05097,0.04579 -0.122756,0.16508 -0.15926,0.22156 -0.187361,0.134241 -0.130013,0.273246 -0.262405,0.421385 -0.02375,0.02658 -0.06515,0.03372 -0.08749,0.06153 -0.02781,0.03458 -0.03881,0.07981 -0.05821,0.119739 -0.104432,0.111181 -0.111,0.239696 -0.202907,0.359523 -0.02645,0.0345 -0.06952,0.05447 -0.09404,0.09033 -0.02994,0.0438 -0.04438,0.09641 -0.06657,0.14462 -0.02743,0.03713 -0.05485,0.07429 -0.08227,0.111421 -0.277143,0.46072 0.125192,-0.176961 -0.168156,0.197521 -0.09986,0.127478 -0.143792,0.313688 -0.337947,0.318007 -0.222626,0.163099 -0.200505,0.46635 -0.344975,0.687539 -0.168579,0.16774 -0.336573,0.569792 -0.4240096,0.795255 -0.18279,0.402864 -0.4794403,0.739129 -0.6451804,1.152223 0,0 -5.8621424,2.564887 -5.8621424,2.564887 z"
     inkscape:connector-curvature="0" />
  <path
     style="fill:#ffffff;fill-opacity:1;stroke:none;stroke-width:0.2;stroke-linecap:square;stroke-linejoin:round;stroke-miterlimit:4;stroke-dasharray:none;stroke-dashoffset:0;stroke-opacity:1;paint-order:normal"
     id="path1604"
     d="m 55.155729,38.860015 c 0.238508,-0.33503 0.437442,-0.695224 0.727638,-0.990839 1.432136,-1.882232 1.824988,-1.208402 5.783719,-3.489096 0.133901,-0.07714 0.290157,-0.09716 0.439492,-0.121202 0.286014,-0.174759 0.634993,-0.114918 0.935363,-0.229651 0.317723,-0.09504 0.650952,-0.103903 0.97993,-0.1109 0.31999,-0.0034 0.640006,-3.52e-4 0.960001,0.001 0.246131,-0.138059 0.525802,-0.14634 0.800523,-0.15598 0.310789,-0.0061 0.621673,-0.0034 0.932499,-0.0022 0.333602,-0.02417 0.6455,0.0956 0.974516,0.13586 0.05099,0.0043 0.1032,6.37e-4 0.153001,0.0124 0.104194,0.0245 0.19952,0.07867 0.302675,0.107279 0.125919,0.03495 0.252896,0.046 0.382531,0.05596 0.04464,0.0018 0.09038,-0.0045 0.133919,0.0055 0.09768,0.0224 0.185999,0.07608 0.282771,0.102145 0.12178,0.03281 0.245693,0.04135 0.37082,0.05013 0.287158,-8.6e-5 0.578019,0.07864 0.837387,0.201714 0.302502,0.08543 0.60185,0.150939 0.887758,0.287402 0.13738,0.08357 0.305119,0.0764 0.452066,0.12398 0.14386,0.04658 0.267717,0.11662 0.41662,0.15318 0.04083,0.0057 0.08298,0.0055 0.122578,0.01721 0.568998,0.16674 -0.244729,-0.03122 0.289047,0.105 0.155421,0.03966 0.291201,0.05143 0.443337,0.108541 0.1407,0.07008 0.306805,0.05246 0.4531,0.09416 0.14442,0.04118 0.273667,0.110701 0.421913,0.14576 0.269648,0.04152 0.543938,0.03515 0.815992,0.03515 0.301418,-0.02388 0.62295,0.05283 0.909695,-0.05292 0.04968,-0.0126 0.102783,-0.01559 0.149099,-0.0376 0.111441,-0.05283 0.240656,-0.171578 0.347314,-0.236423 0.535555,-0.325604 -0.268947,0.21656 0.26235,-0.14868 -1.777729,1.030214 -3.552565,2.065436 -5.333189,3.090642 -0.04294,0.02472 0.0807,-0.05762 0.119281,-0.0887 0.173359,-0.139599 0.04878,-0.06526 0.244365,-0.177978 1.86804,-1.076632 3.722669,-2.176954 5.605761,-3.227037 1.797061,-1.002108 -3.565095,2.055401 -5.347647,3.0831 1.88976,-1.20466 4.034477,-2.364534 5.836968,-3.394144 0.04578,-0.02616 0.10576,-0.01639 0.153239,-0.03926 0.144901,-0.1163 0.06646,-0.06851 0.235089,-0.143779 0.267404,-0.06263 0.02726,0.01761 0.231875,-0.117721 0.03476,-0.023 0.150101,-0.07242 0.11398,-0.05158 -17.921433,10.338869 12.787273,-7.371086 -5.129742,2.963319 1.993969,-1.338389 4.186158,-2.369213 6.234678,-3.630397 0.287808,-0.12676 0.625586,-0.12078 0.845033,-0.364614 2.32969,-1.373589 -16.547388,9.63417 0.396519,-0.263024 0,0 -4.980585,4.031867 -4.980585,4.031867 v 0 c 11.210697,-6.552114 2.878152,-1.686105 -0.396451,0.254017 -0.299603,0.06138 -0.578084,0.17672 -0.829607,0.354343 -2.25479,1.165546 7.517077,-4.370233 4.691147,-2.711471 -1.862206,1.080338 -3.80619,2.030623 -5.586607,3.241012 -1.70477,1.158961 7.169255,-4.072534 5.35906,-3.086319 -1.890665,1.030059 -3.733794,2.145067 -5.60053,3.217875 -0.1148,0.06599 -0.236632,0.0817 -0.340525,0.16658 -0.15518,0.09226 -0.07226,0.0533 -0.249697,0.11488 -0.04276,0.02216 -0.15922,0.10816 -0.117501,0.08408 8.849314,-5.109099 6.93084,-4.061305 5.092664,-2.944574 -18.317096,10.611504 3.836843,-2.262144 -0.640407,0.374719 -1.858296,1.094438 -3.720847,2.181645 -5.581268,3.272466 -0.296934,0.126702 -0.573797,0.247827 -0.906581,0.231033 -0.323063,-0.02048 -0.646971,-0.0063 -0.970284,-0.02472 -0.310733,-0.02014 -0.621573,-0.0546 -0.915743,-0.163701 -0.282539,-0.09884 -0.576451,-0.1483 -0.862027,-0.239756 -0.299252,-0.05273 -0.584969,-0.1638 -0.87666,-0.244681 -0.289084,-0.113701 -0.58953,-0.190061 -0.876095,-0.312062 -0.296214,-0.07999 -0.593528,-0.152121 -0.882499,-0.256969 -0.260442,-0.03946 -0.513769,-0.08756 -0.77663,-0.11258 -0.263953,-0.05944 -0.51921,-0.14532 -0.789881,-0.1629 -0.275485,-0.06503 -0.541847,-0.15928 -0.826325,-0.17508 -0.30753,-0.05455 -0.605336,-0.07983 -0.917955,-0.05442 -0.30093,0.0049 -0.60303,0.01019 -0.901155,0.05561 -0.276186,0.04862 -0.550507,0.150718 -0.833416,0.09961 -0.311217,0.0018 -0.623138,0.0032 -0.933032,0.03534 -0.310926,0.03923 -0.612823,0.1133 -0.91533,0.194022 -0.32068,0.0393 -0.605314,0.175798 -0.911806,0.269647 -1.923149,0.987539 -4.679123,2.775061 4.968375,-2.908757 0.0402,-0.02368 -0.09134,0.0227 -0.132938,0.04382 -0.04436,0.0225 -0.08147,0.05709 -0.122182,0.08563 -0.248324,0.301109 -0.606863,0.521747 -0.749257,0.900819 0,0 -5.862143,2.564885 -5.862143,2.564885 z"
     inkscape:connector-curvature="0" />
  <path
     style="fill:#ffffff;fill-opacity:1;stroke:none;stroke-width:0.2;stroke-linecap:square;stroke-linejoin:round;stroke-miterlimit:4;stroke-dasharray:none;stroke-dashoffset:0;stroke-opacity:1;paint-order:normal"
     id="path1606"
     d="m 41.744749,3.0853301 c 0.416393,-0.238052 0.872888,-0.3909239 1.304201,-0.596092 0.06686,-0.02498 0.1371,-0.0423 0.200578,-0.074919 0.351733,-0.18076 -0.04274,-0.04014 0.30414,-0.18362 0.166621,-0.06892 0.270371,-0.047699 0.4214,-0.15596 0.25653,-0.1410601 0.558116,-0.04394 0.819365,-0.14914 0.30877,-0.087199 0.631927,-0.09298 0.950442,-0.09962 0.158299,0.016 0.325519,-0.02488 0.483131,-0.00149 0.16844,0.025 0.337825,0.087039 0.507236,0.1167599 0.305301,0.04474 0.614524,0.04558 0.922382,0.047341 0.05179,3.19e-5 0.104184,-0.00759 0.15544,9.39e-5 0.11652,0.0174 0.227023,0.06394 0.342566,0.086941 0.15382,0.030599 0.308225,0.044821 0.464314,0.05696 0.302746,0.00421 0.618648,0.06628 0.883753,0.2156339 0.277466,0.1342002 0.508531,0.341814 0.783292,0.4839042 0.04477,0.0158 0.09082,0.028619 0.134339,0.04766 0.212265,0.09284 0.08808,0.065981 0.29988,0.1337399 0.15388,0.04922 0.300668,0.06552 0.453102,0.1233401 0.291436,0.0975 0.562449,0.247382 0.850839,0.3564279 0.274426,0.0643 0.552182,0.14556 0.806402,0.2701441 0.263505,0.1083599 0.549604,0.1131198 0.830054,0.11918 0.14942,0.02092 0.308602,-0.02302 0.45724,2.58e-4 0.145921,0.022859 0.293281,0.08762 0.439864,0.1171599 0.274967,0.039639 0.553822,0.036779 0.830983,0.03808 0.310985,2.381e-4 0.621971,-0.00108 0.932958,-0.00177 0.295189,-0.0331 0.63364,0.07404 0.905943,-0.05696 0.14806,-0.0098 0.173821,-0.1440402 0.29861,-0.1990602 0.03811,-0.0168 0.08485,-0.012399 0.119841,-0.035 0.03308,-0.021259 0.05031,-0.060401 0.07548,-0.09058 0.03473,-0.0176 0.06938,-0.03522 0.104076,-0.05284 -1.793938,1.0430561 -3.587878,2.0861119 -5.381815,3.1291681 0.02966,-0.02466 0.05932,-0.049341 0.08899,-0.074 0.03226,-0.012799 0.06845,-0.018399 0.0968,-0.03838 0.06735,-0.04748 0.09119,-0.14496 0.162519,-0.18626 1.862025,-1.0782899 3.739027,-2.1305001 5.60854,-3.1957501 0.07918,-0.1280998 0.219875,-0.085661 0.330567,-0.1393399 0.03498,-0.017001 0.05119,-0.059821 0.08347,-0.08146 0.07512,-0.05036 0.15036,-0.0557 0.236325,-0.072639 0.189741,-0.047319 0.395785,0.0132 0.585057,-0.02034 0.09546,-0.017 0.183741,-0.0628 0.277955,-0.085699 0.229362,-0.2046661 0.532934,-0.2127141 0.82433,-0.22471 0.08076,-0.06548 0.191261,-0.0482 0.279454,-0.09078 0.04218,-0.020361 0.07066,-0.062081 0.11036,-0.086941 0.122401,-0.076599 0.257858,-0.095581 0.382837,-0.16986 0.08734,-0.06444 0.202353,-0.04202 0.296157,-0.0835 0.04237,-0.018799 0.151441,-0.10648 0.11112,-0.08362 -1.790925,1.016224 -3.580541,2.0348138 -5.363928,3.0642139 -0.03858,0.02226 0.08832,-0.0194 0.127041,-0.0414 0.04,-0.022759 0.06964,-0.0602 0.104485,-0.09032 0.26989,-0.1174 0.345449,-0.414406 0.545634,-0.595976 0.138321,-0.08422 0.208666,-0.235464 0.30478,-0.358628 0.217476,-0.278694 -0.06866,0.1755 0.14446,-0.1809801 0,0 5.918708,-2.4612919 5.918708,-2.4612919 v 0 c -0.207755,0.1172599 0.02223,-0.03262 -0.15488,0.15942 -0.02417,0.02622 -0.06632,0.0314 -0.08971,0.05832 -0.02891,0.03324 -0.03505,0.081921 -0.06222,0.11654 -0.183979,0.234084 0.0047,-0.12724 -0.149359,0.2092001 -0.206882,0.2378359 0.03943,-0.0168 -0.203039,0.1526398 -0.163321,0.1141601 -0.190682,0.353432 -0.326227,0.496048 -0.03524,0.03038 -0.07618,0.055219 -0.10576,0.09114 -0.03579,0.04342 -0.03952,0.1154602 -0.08797,0.144 -3.425035,2.0171081 -3.819603,2.4484162 -6.023211,3.3722021 -0.289783,0.088801 -0.561394,0.21729 -0.873956,0.21652 -0.270536,0.077061 -0.51489,0.240288 -0.800527,0.247724 -0.277131,0.04774 -0.565884,0.032 -0.806668,0.20621 -0.04324,0.028841 -0.149881,0.10372 -0.199781,0.12198 -0.03979,0.014599 -0.08527,0.0098 -0.1244,0.02604 -0.108901,0.04524 -0.18276,0.1619799 -0.313801,0.1623599 1.796495,-1.03315 3.599275,-2.055452 5.389488,-3.0994521 0.0328,-0.019199 -0.07631,0.0082 -0.1118,0.021659 -0.15266,0.05798 -0.04637,0.050121 -0.160439,0.1682 -0.02578,0.02664 -0.06369,0.0379 -0.09553,0.056859 -1.853891,1.0882201 -3.707785,2.1764401 -5.561678,3.2646602 -0.230204,0.1383798 0.0436,-0.0108 -0.224318,0.083461 -0.03722,0.013 -0.06766,0.04114 -0.103945,0.05662 -0.13496,0.05762 -0.263756,0.02472 -0.405679,0.043221 -0.315256,-0.0358 -0.633367,-0.0106 -0.950197,-0.017601 -0.315658,-2.38e-4 -0.63147,3.039e-4 -0.946898,-0.0134 -0.303013,-0.017187 -0.605433,-0.046447 -0.90066,-0.1205271 -0.280529,-0.05688 -0.563796,-0.02 -0.847552,-0.06508 C 48.135296,7.5442481 47.821256,7.4609481 47.520724,7.3270703 47.24541,7.2509701 46.9775,7.1438502 46.710345,7.0440281 46.443816,6.9245082 46.175752,6.8070062 45.894654,6.7263542 c -0.339397,-0.08844 -0.655962,-0.24642 -0.961356,-0.416402 -0.23856,-0.1494201 -0.472263,-0.310438 -0.745472,-0.389318 -0.260506,-0.02228 -0.517038,-0.08758 -0.780688,-0.09656 -0.309616,-0.05052 -0.614436,-0.1187 -0.929834,-0.09766 -0.325767,-0.019 -0.650197,-0.05294 -0.97057,-0.11696 -0.302042,-0.04766 -0.600094,-0.021161 -0.904205,0.00641 -0.304618,0.036341 -0.601142,0.10518 -0.899247,0.1761001 -0.275484,0.018799 -0.504389,0.12556 -0.744859,0.2558879 -0.201303,0.0448 -0.344916,0.16716 -0.533496,0.2447121 -0.05684,0.023381 -0.1175,0.036441 -0.17468,0.058939 -0.06279,0.02472 -0.123241,0.05508 -0.18486,0.08264 -0.456022,0.18288 -0.885382,0.4250281 -1.337891,0.616252 0,0 5.017261,-3.96522 5.017261,-3.96522 z"
     inkscape:connector-curvature="0" />
  <path
     style="fill:#ffffff;fill-opacity:1;stroke:none;stroke-width:0.2;stroke-linecap:square;stroke-linejoin:round;stroke-miterlimit:4;stroke-dasharray:none;stroke-dashoffset:0;stroke-opacity:1;paint-order:normal"
     id="path1604-8"
     d="m -10.624379,37.90666 c 0.238508,-0.335031 0.437442,-0.695224 0.7276381,-0.99084 1.4321363,-1.882232 1.8249877,-1.208404 5.7837187,-3.489097 0.1339,-0.07714 0.290157,-0.09716 0.439492,-0.121201 0.286014,-0.17476 0.634993,-0.11492 0.935362,-0.229653 0.317724,-0.09504 0.650952,-0.103902 0.97993,-0.110899 0.31999,-0.0034 0.640006,-3.53e-4 0.960002,10e-4 0.24613,-0.13806 0.525802,-0.146341 0.800522,-0.15598 0.31079,-0.0061 0.621674,-0.0034 0.9325,-0.0022 0.333602,-0.02418 0.6455,0.0956 0.974516,0.13586 0.051,0.0043 0.1032,6.36e-4 0.153,0.0124 0.104199,0.02449 0.19952,0.07867 0.302676,0.107279 0.125919,0.03494 0.252896,0.046 0.38253,0.05596 0.04464,0.0018 0.09038,-0.0045 0.13392,0.0055 0.09768,0.0224 0.185999,0.07608 0.28277,0.102145 0.12178,0.03281 0.245693,0.04135 0.37082,0.05013 0.287157,-8.5e-5 0.578019,0.07863 0.837388,0.201715 0.302502,0.08543 0.601851,0.15094 0.887758,0.287401 0.137379,0.08357 0.305118,0.0764 0.452065,0.12398 0.143861,0.04659 0.267717,0.116621 0.416621,0.153181 0.04083,0.0057 0.08298,0.0055 0.12258,0.01721 0.568995,0.166739 -0.24473,-0.03121 0.289045,0.104999 0.15542,0.03966 0.2912,0.05144 0.443337,0.108541 0.140699,0.07008 0.306805,0.05247 0.4531,0.09416 0.14442,0.04118 0.273667,0.110701 0.421913,0.145761 0.269649,0.04152 0.543936,0.03515 0.815993,0.03515 0.301417,-0.02387 0.622949,0.05284 0.909693,-0.05292 0.04968,-0.0126 0.102783,-0.01559 0.149101,-0.0376 0.111439,-0.05283 0.240656,-0.17158 0.3473142,-0.236424 0.535554,-0.325604 -0.2689482,0.21656 0.262349,-0.14868 -1.7777302,1.030214 -3.5525652,2.065436 -5.3331892,3.090642 -0.04294,0.02472 0.0807,-0.05762 0.11928,-0.0887 0.17336,-0.139602 0.04878,-0.06527 0.244365,-0.177981 1.86804,-1.076631 3.722671,-2.176954 5.6057622,-3.227036 1.797061,-1.002109 -3.5650962,2.0554 -5.3476472,3.083099 1.889759,-1.204659 4.034477,-2.364534 5.8369682,-3.394144 0.04578,-0.02616 0.105759,-0.01639 0.153239,-0.03926 0.1449,-0.1163 0.06645,-0.0685 0.235088,-0.14378 0.267404,-0.06263 0.02726,0.01761 0.231876,-0.117719 0.03476,-0.023 0.1501,-0.07242 0.113981,-0.05158 -17.9214332,10.338872 12.787273,-7.371084 -5.1297432,2.963322 1.993969,-1.338391 4.1861582,-2.369215 6.2346772,-3.630397 0.287808,-0.126761 0.625587,-0.120781 0.845032,-0.364615 2.329692,-1.373588 -16.5473862,9.63417 0.396521,-0.263024 0,0 -4.9805852,4.031868 -4.9805852,4.031868 v 0 c 11.2106952,-6.552114 2.8781542,-1.686107 -0.39645,0.254016 -0.299604,0.06138 -0.578085,0.17672 -0.829608,0.354343 -2.25479,1.165548 7.5170762,-4.370232 4.6911462,-2.711472 -1.862205,1.080338 -3.8061882,2.030625 -5.5866072,3.241012 -1.704769,1.158961 7.1692562,-4.072533 5.3590602,-3.086317 -1.890664,1.030058 -3.7337942,2.145066 -5.6005302,3.217874 -0.1148,0.06599 -0.236631,0.0817 -0.340524,0.166579 -0.155179,0.09225 -0.07226,0.0533 -0.249698,0.114881 -0.04276,0.02216 -0.15922,0.10816 -0.1175,0.08408 8.8493152,-5.109098 6.9308402,-4.061305 5.0926642,-2.944573 -18.3170962,10.611504 3.836845,-2.262144 -0.640408,0.37472 -1.8582952,1.09442 -3.7208462,2.181626 -5.5812672,3.272448 -0.296934,0.126701 -0.573799,0.247828 -0.90658,0.231032 -0.323064,-0.02048 -0.646973,-0.0064 -0.970284,-0.02472 -0.310733,-0.02009 -0.621575,-0.05455 -0.915744,-0.163648 -0.282539,-0.09876 -0.576452,-0.148227 -0.862028,-0.239682 -0.299252,-0.05273 -0.584968,-0.163801 -0.876658,-0.244684 -0.289085,-0.113699 -0.589532,-0.190059 -0.876096,-0.312062 -0.296214,-0.07999 -0.593528,-0.152119 -0.8825,-0.256968 -0.26044,-0.03946 -0.513767,-0.08756 -0.77663,-0.112579 -0.263952,-0.05944 -0.51921,-0.14532 -0.78988,-0.162901 -0.275486,-0.06503 -0.541848,-0.15928 -0.826325,-0.175079 -0.30753,-0.05455 -0.605337,-0.07984 -0.917955,-0.05442 -0.30093,0.0049 -0.60303,0.01019 -0.901155,0.0556 -0.276186,0.04863 -0.550507,0.150721 -0.833416,0.09962 -0.311217,0.0018 -0.623138,0.0032 -0.933033,0.03534 -0.310925,0.03922 -0.612822,0.113299 -0.91533,0.19402 -0.320679,0.0393 -0.6053131,0.1758 -0.9118048,0.269649 -1.92315,0.987539 -4.679124,2.775061 4.9683748,-2.908758 0.0402,-0.02367 -0.09134,0.0227 -0.132939,0.04382 -0.04436,0.0225 -0.08146,0.05709 -0.12218,0.08564 -0.248325,0.30111 -0.606865,0.521747 -0.749258,0.90082 0,0 -5.8621408,2.564886 -5.8621408,2.564886 z"
     inkscape:connector-curvature="0" />
  <path
     style="fill:#ffffff;fill-opacity:1;stroke:none;stroke-width:0.2;stroke-linecap:square;stroke-linejoin:round;stroke-miterlimit:4;stroke-dasharray:none;stroke-dashoffset:0;stroke-opacity:1;paint-order:normal"
     id="path1627"
     d="m 27.080969,33.970101 c 0.190361,-0.266841 0.390108,-0.527244 0.596602,-0.781888 1.226044,-1.187262 2.746819,-2.262484 4.429095,-2.582248 0.243805,-0.03676 0.497855,0.01861 0.725801,0.1079 0.227204,0.07516 0.462508,0.133459 0.682296,0.228629 0.09865,0.05562 0.21743,0.04723 0.321732,0.07901 0.101766,0.03102 0.190819,0.08012 0.295765,0.105221 0.204037,0.09324 0.419505,0.146659 0.620493,0.248759 0.201212,0.10536 0.431937,0.07895 0.64189,0.145321 0.229284,0.03251 0.444876,0.10988 0.67112,0.155099 0.24495,0.02444 0.478174,0.09574 0.723478,0.12434 0.130779,0.07714 0.290466,0.07075 0.429142,0.115461 0.06661,0.02146 0.126939,0.05919 0.192219,0.08436 0.10386,0.09352 0.235209,0.09874 0.359567,0.137221 0.085,0.0263 0.14604,0.06755 0.222928,0.111698 0.03553,0.016 0.07197,0.02996 0.106538,0.04787 0.1401,0.07253 0.08192,0.0607 0.221842,0.11532 0.0982,0.03831 0.12446,0.02776 0.218278,0.08892 0.04604,0.03002 0.0857,0.06882 0.128539,0.103238 0.212096,0.134981 0.427601,0.278672 0.664302,0.366352 0.25511,0.08606 0.508943,0.19122 0.75365,0.305277 0.235916,0.08448 0.485916,0.09988 0.734019,0.10622 0.14712,-0.02038 0.310216,0.02912 0.455821,-0.0018 0.05982,-0.0126 0.111501,-0.05056 0.169041,-0.07128 0.05142,-0.08015 0.117938,-0.117742 0.209626,-0.137361 0.03108,-0.0065 0.06532,-4.2e-4 0.09443,-0.0132 0.02536,-0.01121 0.04131,-0.0369 0.06194,-0.05536 0.02602,-0.011 0.05205,-0.02209 0.07808,-0.03312 -10.180079,5.836496 0.20482,-0.131481 0.205018,-0.131601 1.287353,-0.701771 -2.540366,1.464793 -3.812778,2.193306 -0.04545,0.02602 0.09014,-0.05568 0.14034,-0.07062 0.277382,-0.243813 -0.139441,0.110722 0.13008,-0.08258 0.216188,-0.155041 -0.09215,0.0174 0.12116,-0.09558 0,0 4.187129,-1.736637 4.187129,-1.736637 v 0 c -0.133059,0.222286 0.04116,-0.04062 -0.11246,0.116779 -0.14212,0.145601 0.04608,0.02474 -0.11656,0.11676 -0.08361,0.11962 -0.0114,0.04339 -0.125799,0.109201 -1.317522,0.757947 -2.63889,1.509338 -3.948954,2.280101 -1.262932,0.743034 2.53837,-1.464599 3.80755,-2.196909 0.02323,-0.0134 -0.04649,0.0268 -0.06972,0.0402 -1.318378,0.75727 -2.636754,1.51454 -3.955129,2.271808 -0.256404,0.12014 0.11914,-0.0472 -0.16764,0.05005 -0.116841,0.03962 -0.1949,0.144821 -0.334368,0.105441 -0.228499,0.014 -0.461308,-0.02566 -0.68992,-0.03789 -0.27999,-0.0409 -0.554752,-0.10838 -0.813065,-0.226932 -0.253969,-0.100241 -0.500251,-0.219225 -0.755897,-0.315305 -0.241555,-0.1275 -0.476945,-0.265263 -0.702092,-0.420287 -0.217178,-0.09488 -0.430505,-0.196219 -0.645884,-0.295208 -0.19584,-0.0612 -0.384675,-0.132939 -0.573185,-0.212678 -0.179161,-0.06136 -0.370629,-0.101718 -0.556209,-0.13904 -0.250072,-0.04954 -0.50097,-0.09064 -0.748996,-0.1481 -0.220808,-0.06002 -0.445824,-0.09526 -0.668054,-0.150399 -0.241362,-0.02797 -0.467159,-0.114081 -0.687234,-0.214665 -0.201385,-0.06752 -0.400322,-0.141861 -0.60284,-0.204961 -0.204483,-0.0768 -0.417458,-0.12358 -0.620161,-0.206789 -0.219209,-0.06106 -0.431472,-0.145279 -0.656281,-0.186579 -0.217749,-0.0096 -0.375448,-0.0078 -0.569983,0.10964 -1.308368,0.791321 -2.552508,1.53638 3.598381,-2.0687 0.168739,-0.0989 -0.135179,0.03646 -0.200258,0.08414 -0.03476,0.02548 -0.06376,0.05798 -0.09564,0.08699 -0.266415,0.15746 -0.436765,0.423532 -0.623635,0.663361 0,0 -4.145159,1.813649 -4.145159,1.813649 z"
     inkscape:connector-curvature="0" />
  <path
     style="fill:#ffffff;fill-opacity:1;stroke:none;stroke-width:0.2;stroke-linecap:square;stroke-linejoin:round;stroke-miterlimit:4;stroke-dasharray:none;stroke-dashoffset:0;stroke-opacity:1;paint-order:normal"
     id="path1629"
     d="m 58.84149,25.807762 c 1.749732,-1.722735 4.967716,-3.093822 6.513206,-3.984963 0.364676,-0.152581 0.67846,-0.250329 1.074373,-0.283101 0.313853,-0.1082 0.605969,-0.238288 0.936973,-0.290448 0.328042,-0.03783 0.658956,-0.03291 0.98859,-0.03149 0.316923,0.0022 0.633851,0.0041 0.950785,0.0049 0.262911,0.08681 0.535793,0.124678 0.810499,0.146759 0,0 -5.21326,3.690964 -5.21326,3.690964 v 0 c -0.252768,-0.04126 -0.509176,-0.113201 -0.766292,-0.08412 -0.313731,-6.88e-4 -0.627602,-0.0028 -0.941191,0.0084 -0.305029,0.0158 -0.611379,0.04203 -0.901913,0.14372 -0.31351,0.11164 -0.624426,0.227417 -0.958473,0.261456 -0.326247,0.10408 -0.639705,0.254949 -0.935906,0.424723 1.75286,-1.014829 3.505533,-2.029959 5.258567,-3.04448 0.06408,-0.03708 -0.12654,0.07704 -0.191719,0.112159 -0.217788,0.11734 -0.195801,0.0773 -0.397871,0.227377 -0.05992,0.04449 -0.1139,0.0965 -0.17086,0.14476 -0.04759,0.03478 -0.09513,0.06954 -0.14272,0.104299 0,0 -5.912813,2.449168 -5.912813,2.449168 z"
     inkscape:connector-curvature="0" />
  <path
     style="fill:#ffffff;fill-opacity:1;stroke:none;stroke-width:0.2;stroke-linecap:square;stroke-linejoin:round;stroke-miterlimit:4;stroke-dasharray:none;stroke-dashoffset:0;stroke-opacity:1;paint-order:normal"
     id="path1604-8-4"
     d="m -10.660625,65.932701 c 0.238508,-0.335031 0.437441,-0.695223 0.7276371,-0.990839 1.4321364,-1.882232 1.8249881,-1.208405 5.7837191,-3.489099 0.1339,-0.07714 0.290156,-0.09716 0.439492,-0.121199 0.286014,-0.17476 0.634993,-0.114921 0.935362,-0.229653 0.317724,-0.09504 0.650952,-0.103903 0.97993,-0.110899 0.319991,-0.0034 0.640006,-3.53e-4 0.96000196,0.001 0.246131,-0.13806 0.525802,-0.14634 0.800522,-0.155979 0.31079,-0.0061 0.621674,-0.0034 0.9325,-0.0022 0.33360204,-0.02419 0.64550004,0.0956 0.97451604,0.135859 0.051,0.0043 0.103201,6.35e-4 0.153001,0.01239 0.104199,0.0245 0.199519,0.07867 0.302675,0.10728 0.12592,0.03495 0.252896,0.046 0.38253,0.05596 0.04464,0.0018 0.09039,-0.0045 0.13392,0.0055 0.09768,0.0224 0.185999,0.07608 0.282771,0.102134 0.12178,0.03281 0.245693,0.04135 0.37082,0.05013 0.287157,-8.7e-5 0.578018,0.07863 0.837387,0.201714 0.302503,0.08543 0.60185,0.150939 0.887759,0.287401 0.137379,0.08357 0.305117,0.07641 0.452066,0.12398 0.14386,0.04658 0.267716,0.11662 0.41662,0.15318 0.04084,0.0057 0.08298,0.0055 0.12258,0.0172 0.568995,0.166741 -0.244731,-0.03122 0.289045,0.105 0.155421,0.03966 0.291201,0.05143 0.443336,0.10854 0.140699,0.07008 0.306806,0.05247 0.4531,0.09416 0.144421,0.04118 0.273668,0.110699 0.421914,0.145761 0.269648,0.04152 0.543937,0.03515 0.815992,0.03515 0.301418,-0.02388 0.622949,0.05283 0.909693,-0.05292 0.04968,-0.0126 0.102783,-0.01559 0.1491,-0.0376 0.111441,-0.05283 0.240657,-0.17158 0.3473128,-0.236425 0.535555,-0.325602 -0.2689468,0.216561 0.262351,-0.148679 -1.7777288,1.030214 -3.5525638,2.065436 -5.3331878,3.090644 -0.04294,0.02472 0.0807,-0.05762 0.11928,-0.08871 0.17336,-0.1396 0.04878,-0.06527 0.244365,-0.177981 1.86804,-1.076628 3.72267,-2.176952 5.6057608,-3.227035 1.79706,-1.002107 -3.5650948,2.0554 -5.3476468,3.083101 1.88976,-1.204661 4.034477,-2.364534 5.8369668,-3.394145 0.04578,-0.02616 0.10576,-0.01639 0.153239,-0.03926 0.144901,-0.116301 0.06646,-0.0685 0.235089,-0.143779 0.267404,-0.06264 0.02726,0.0176 0.231875,-0.11772 0.03476,-0.023 0.150101,-0.07243 0.113981,-0.05159 -17.9214318,10.338874 12.787273,-7.371082 -5.1297418,2.963324 1.993968,-1.338389 4.1861568,-2.369214 6.2346768,-3.630398 0.28781,-0.126759 0.625586,-0.120781 0.845033,-0.364614 2.329691,-1.373587 -16.5473868,9.634171 0.39652,-0.263024 0,0 -4.9805848,4.031868 -4.9805848,4.031868 v 0 c 11.2106968,-6.552113 2.8781518,-1.686106 -0.39645,0.254016 -0.299604,0.06138 -0.578084,0.176721 -0.829609,0.354344 -2.254789,1.165544 7.5170778,-4.370236 4.6911478,-2.711473 -1.862206,1.080337 -3.8061898,2.030624 -5.5866068,3.241011 -1.70477,1.158961 7.1692538,-4.072534 5.3590588,-3.086318 -1.890663,1.030059 -3.7337928,2.145066 -5.6005288,3.217873 -0.1148,0.06599 -0.236633,0.0817 -0.340524,0.166581 -0.155181,0.09225 -0.07225,0.0533 -0.249698,0.11488 -0.04276,0.02216 -0.159221,0.10816 -0.1175,0.08408 8.8493138,-5.109093 6.9308388,-4.0613 5.0926618,-2.944569 -18.3170948,10.611505 3.836844,-2.262143 -0.640407,0.37472 -1.8582948,1.094439 -3.7208458,2.181645 -5.5812668,3.272467 -0.296934,0.126699 -0.573798,0.247827 -0.90658,0.231032 -0.323064,-0.02041 -0.646972,-0.0063 -0.970284,-0.02464 -0.310734,-0.02009 -0.621574,-0.05454 -0.915744,-0.163641 -0.282538,-0.09883 -0.576452,-0.148301 -0.862028,-0.239756 -0.299252,-0.05272 -0.584968,-0.163801 -0.87665804,-0.244682 -0.289085,-0.113701 -0.589531,-0.19006 -0.876096,-0.312062 -0.296214,-0.07999 -0.593528,-0.152121 -0.8825,-0.256969 -0.26043996,-0.03946 -0.51376696,-0.08756 -0.77662996,-0.112579 -0.263952,-0.05944 -0.51921,-0.145321 -0.78988,-0.1629 -0.275486,-0.06503 -0.541848,-0.159281 -0.826325,-0.175082 -0.30753,-0.05455 -0.605336,-0.07984 -0.917955,-0.05442 -0.30093,0.0049 -0.60303,0.0102 -0.901155,0.05561 -0.276186,0.04862 -0.550507,0.150718 -0.833416,0.09961 -0.311217,0.0018 -0.623138,0.0032 -0.933032,0.03534 -0.3109257,0.03923 -0.612822,0.1133 -0.9153293,0.19402 -0.3206801,0.0393 -0.6053148,0.175801 -0.9118062,0.269651 -1.9231497,0.987537 -4.6791237,2.775059 4.9683745,-2.908759 0.0402,-0.02368 -0.09134,0.0227 -0.132939,0.04382 -0.04436,0.0225 -0.08146,0.05709 -0.12218,0.08563 -0.248324,0.30111 -0.606864,0.521749 -0.749258,0.90082 0,0 -5.8621412,2.564886 -5.8621412,2.564886 z"
     inkscape:connector-curvature="0" />
  <path
     style="fill:#ffffff;fill-opacity:1;stroke:none;stroke-width:0.2;stroke-linecap:square;stroke-linejoin:round;stroke-miterlimit:4;stroke-dasharray:none;stroke-dashoffset:0;stroke-opacity:1;paint-order:normal"
     id="path1604-8-5"
     d="m 55.231056,66.088684 c 0.238507,-0.335031 0.437441,-0.695224 0.727637,-0.990839 1.432136,-1.882232 1.824988,-1.208406 5.783721,-3.489099 0.133899,-0.07714 0.290155,-0.09716 0.439489,-0.121199 0.286016,-0.174761 0.634994,-0.114921 0.935364,-0.229654 0.317723,-0.09504 0.650951,-0.103903 0.979929,-0.110899 0.31999,-0.0034 0.640006,-3.52e-4 0.960002,10e-4 0.24613,-0.138061 0.525803,-0.146341 0.800522,-0.155981 0.31079,-0.0061 0.621674,-0.0034 0.9325,-0.0022 0.333602,-0.02419 0.6455,0.0956 0.974516,0.135859 0.05099,0.0043 0.103202,6.33e-4 0.153,0.0124 0.104194,0.02451 0.199521,0.07867 0.302676,0.107281 0.125921,0.03495 0.252895,0.046 0.38253,0.05595 0.04464,0.0018 0.09038,-0.0045 0.133921,0.0055 0.09768,0.0224 0.186,0.07608 0.282772,0.102144 0.12178,0.03281 0.245693,0.04136 0.370818,0.05013 0.287159,-8.6e-5 0.57802,0.07863 0.837389,0.201714 0.302503,0.08543 0.60185,0.15094 0.887759,0.287403 0.137379,0.08357 0.305116,0.07639 0.452066,0.12398 0.143858,0.04658 0.267715,0.116618 0.41662,0.15318 0.04083,0.0057 0.08298,0.0055 0.122579,0.0172 0.568996,0.166741 -0.24473,-0.03122 0.289046,0.105001 0.15542,0.03966 0.2912,0.05143 0.443336,0.108539 0.1407,0.07008 0.306805,0.05247 0.4531,0.09417 0.14442,0.04118 0.273668,0.110699 0.421915,0.14576 0.269646,0.04152 0.543935,0.03515 0.815991,0.03515 0.301418,-0.02388 0.622947,0.05284 0.909691,-0.05292 0.04968,-0.0126 0.102784,-0.01559 0.149101,-0.0376 0.11144,-0.05283 0.240656,-0.171579 0.347314,-0.236424 0.535553,-0.325603 -0.268949,0.21656 0.262348,-0.14868 -1.777727,1.030214 -3.552562,2.065437 -5.333186,3.090642 -0.04294,0.02472 0.08069,-0.05762 0.119281,-0.0887 0.173359,-0.1396 0.04878,-0.06527 0.244365,-0.177979 1.86804,-1.07663 3.722669,-2.176954 5.605759,-3.227037 1.797061,-1.002107 -3.565094,2.0554 -5.347645,3.083101 1.889759,-1.204661 4.034476,-2.364534 5.836966,-3.394144 0.04578,-0.02616 0.10576,-0.01639 0.153239,-0.03926 0.144901,-0.1163 0.06645,-0.06851 0.235089,-0.14378 0.267403,-0.06263 0.02726,0.0176 0.231875,-0.11772 0.03476,-0.023 0.150101,-0.07243 0.113981,-0.05159 -17.921433,10.338875 12.787272,-7.371082 -5.129742,2.963324 1.99397,-1.338389 4.186157,-2.369213 6.234678,-3.630397 0.287808,-0.12676 0.625586,-0.120782 0.845032,-0.364614 2.329691,-1.373588 -16.547387,9.63417 0.39652,-0.263024 0,0 -4.980586,4.031867 -4.980586,4.031867 v 0 c 11.210698,-6.552113 2.878154,-1.686105 -0.396449,0.254017 -0.299606,0.06138 -0.578084,0.17672 -0.829606,0.354343 -2.254794,1.165547 7.517074,-4.370234 4.691145,-2.711472 -1.862208,1.080337 -3.806191,2.030625 -5.586606,3.241013 -1.704772,1.15896 7.169254,-4.072535 5.359058,-3.086319 -1.890664,1.030059 -3.733792,2.145067 -5.600528,3.217874 -0.1148,0.06598 -0.236634,0.0817 -0.340524,0.166581 -0.155179,0.09225 -0.07226,0.0533 -0.249697,0.114879 -0.04276,0.02215 -0.159221,0.108161 -0.117501,0.08408 8.849311,-5.109098 6.930837,-4.061305 5.092661,-2.944574 -18.317096,10.611505 3.836844,-2.262143 -0.640407,0.374721 -1.858294,1.094438 -3.720846,2.181644 -5.581268,3.272466 -0.296934,0.126699 -0.573797,0.247827 -0.906579,0.231032 -0.323063,-0.02048 -0.64697,-0.0063 -0.970283,-0.02472 -0.310734,-0.02014 -0.621573,-0.0546 -0.915745,-0.1637 -0.282538,-0.09884 -0.576452,-0.148298 -0.862028,-0.239759 -0.299252,-0.05273 -0.58497,-0.163801 -0.876659,-0.244682 -0.289084,-0.113701 -0.589531,-0.190061 -0.876095,-0.312062 -0.296215,-0.07999 -0.593528,-0.15212 -0.882501,-0.256968 -0.26044,-0.03947 -0.513767,-0.08756 -0.776629,-0.112581 -0.263952,-0.05945 -0.51921,-0.145319 -0.78988,-0.162899 -0.275486,-0.06503 -0.541849,-0.15928 -0.826326,-0.17508 -0.307531,-0.05455 -0.605337,-0.07984 -0.917955,-0.05442 -0.300929,0.0049 -0.603029,0.01019 -0.901155,0.05561 -0.276186,0.04862 -0.550506,0.150719 -0.833417,0.09961 -0.311214,0.0018 -0.623138,0.0032 -0.933032,0.03534 -0.310925,0.03923 -0.612821,0.113301 -0.915328,0.194021 -0.320681,0.0393 -0.605316,0.1758 -0.911806,0.26965 -1.923151,0.987538 -4.679124,2.775059 4.968374,-2.908757 0.0402,-0.02369 -0.09134,0.0227 -0.132939,0.04382 -0.04436,0.0225 -0.08147,0.05709 -0.122181,0.08563 -0.248322,0.30111 -0.606862,0.521748 -0.749255,0.900819 0,0 -5.862144,2.564886 -5.862144,2.564886 z"
     inkscape:connector-curvature="0" />
</svg>
